<?xml version="1.0" standalone="yes"?>
<svg xmlns="http://www.w3.org/2000/svg" width="225" height="225">
<path style="fill:none; stroke:none;" d="M0 0L0 225L225 225L225 0L0 0z"/>
<path style="fill:#2CA8E4; stroke:none;" d="M18 2.50385C3.39637 4.49644 -1.96013 21.1132 7.21373 32C25.2044 53.3499 47.2537 72.2537 67 92C71.6645 96.6645 76.3911 101.275 80.9946 106C82.7381 107.789 85.7406 110.169 85.3688 113C85.0537 115.4 82.5684 117.385 80.9946 119C76.72 123.387 72.3313 127.669 68 132L19 181C10.0396 189.96 -3.84518 201.128 5.34028 214.91C11.5597 224.242 23.858 224.647 32 217.786C53.3499 199.796 72.2537 177.746 92 158C96.6645 153.335 101.275 148.609 106 144.005C107.789 142.262 110.169 139.259 113 139.631C115.4 139.946 117.385 142.432 119 144.005C123.387 148.28 127.669 152.669 132 157L180 205C187.546 212.546 196.677 225.389 209 222.231C221.702 218.976 226.541 204.281 218.606 194C212.711 186.362 204.816 179.816 198 173L158 133C153.012 128.012 147.85 123.145 143.024 118C141.226 116.083 138.828 113.872 139.921 111C141.769 106.146 148.393 101.607 152 98L180 70L203 47C209.345 40.6549 220 33.3358 221.671 24C224.126 10.2788 210.037 -1.64835 197 4.57253C188.935 8.42093 182.242 17.7578 176 24L135 65C129.669 70.331 124.4 75.7334 119 80.9946C117.211 82.7381 114.831 85.7406 112 85.3688C109.6 85.0537 107.615 82.5684 106 80.9946C101.613 76.72 97.3313 72.3313 93 68L43 18C36.2878 11.2878 28.7571 1.03609 18 2.50385z"/>
</svg>
