<?xml version="1.0" standalone="yes"?>
<svg xmlns="http://www.w3.org/2000/svg" width="500" height="500">
<path style="fill:none; stroke:none;" d="M0 0L0 500L500 500L500 0L0 0z"/>
<path style="fill:#00B3FF; stroke:none;" d="M247 62L224 63C230.035 57.365 237.451 51.5142 239 43C229.511 41.4897 220.341 46.2961 214.789 54.0038C212.36 57.3769 211.482 62.7117 207.856 65.0116C205.325 66.6167 201.854 66.7734 199 67.4745C193.152 68.9113 187.505 70.5385 182 73C187.961 63.3409 197.246 53.8413 198 42C185.719 42.671 177.918 55.1089 174.043 65.5756C172.853 68.7916 173.293 72.8035 171.142 75.6065C168.428 79.1417 161.97 81.1551 158 83C158.98 75.2429 159.395 68.5552 157 61C141.937 63.7284 136.5 80.2682 142 93C134.592 96.7811 122.324 104.742 120 113C130.334 112.275 135.897 99.7285 146 98.0926C150.218 97.4096 154.395 101.619 158.039 103.258C163.573 105.746 170.919 107.168 177 106.674C185.044 106.021 185.507 102.015 178.96 97.8117C172.703 93.7947 166.309 91.9286 159 91C164.64 84.9942 175.223 84.9924 180 79C186.423 83.2266 192.362 87.9219 200 89.7608C202.14 90.276 207.306 91.8773 208.172 88.679C209.794 82.6896 199.068 77.5963 196 74C201.165 73.333 207.809 70.4228 212.957 71.4074C217.883 72.3497 225.023 82.5518 227 87C231.516 87.8579 235.31 89.8613 240 90C238.42 81.14 231.964 75.9487 227 69C234.164 67.2944 242.625 67.1523 250 67C250.067 74.931 252.874 81.4964 259.015 86.7762C261.613 89.0099 272.062 95.511 274.303 89.6821C275.69 86.0752 272.27 79.1436 270.587 76C269.054 73.1372 266.923 70.604 265 68C273.559 69.0817 282.382 70.9287 291 71C291.43 80.9981 295.339 90.6648 305.08 94.9807C307.56 96.0793 310.988 97.6826 313.686 96.392C320.433 93.1646 311.729 79.4001 308 77C313.749 76.4904 319.725 79.0061 324.995 81.2076C326.965 82.0305 329.552 82.9245 330.188 85.2245C330.797 87.428 329.406 89.796 329.313 92C329.118 96.625 331.869 101.494 335.019 104.674C336.321 105.99 337.789 107.211 339.285 108.3C340.421 109.126 341.672 110.066 343.01 110.539C353.925 114.4 348.493 94.6995 347 90C352.892 93.0143 360.476 94.9857 365.73 99.0046C370.871 102.937 371.937 108.004 379 109.76C382.596 110.654 391.352 112.253 393.917 108.401C396.552 104.446 389.514 99.0185 386.96 97.0401C382.497 93.5836 376.672 91.5352 371.09 90.7191C369.009 90.4149 366.967 91.0926 364.91 90.5286C359.666 89.0902 355.304 85.3849 350 84C355.547 82.1215 362.44 82.1689 366.663 77.5255C372.385 71.2325 357.992 68.3523 354 68.0903C349.743 67.8108 344.824 68.2294 341.015 70.3025C338.283 71.7894 336.145 75.0748 332.95 75.554C328.444 76.2299 322.653 72.4633 318 72C320.332 68.071 330.792 65.1695 330.079 60.0679C329.295 54.4588 317.104 53.8956 313 54.4545C304.544 55.6061 298.868 62.9523 290.83 64.2191C287.32 64.7725 283.487 63.519 280 63.169C271.963 62.3624 264.081 62 256 62L256 60C263.677 59.0425 270.714 54.1279 276.33 49C278.047 47.4329 281.849 44.2268 279.917 41.564C277.806 38.6526 270.869 40.0223 268 40.7608C258.189 43.2867 248.484 51.6412 247 62z"/>
<path style="fill:none; stroke:none;" d="M181 61L182 62L181 61M308 66C309.248 66.6849 309.548 66.7488 311 67C309.752 66.3152 309.452 66.2512 308 66M150 83L150 87C150.71 85.2405 150.71 84.7595 150 83M337 98C337.545 99.6352 337.365 99.455 339 100L339 98L337 98M376 102C377.543 103.267 378.048 103.489 380 104C378.542 102.919 377.752 102.564 376 102z"/>
<path style="fill:#00B3FF; stroke:none;" d="M83 171C82.0947 168.138 81.784 165.092 80.6991 162.285C79.6393 159.545 77.0041 152.689 73.0949 153.752C69.6487 154.688 68.1722 159.987 67.5185 163C65.5946 171.867 67.2077 182.722 76 187C73.2052 192.47 71.5708 198.078 70 204C67.6605 200.674 64.7474 193.912 60.8056 192.323C53.47 189.367 52.7308 204.052 53.1042 208C53.9403 216.84 61.7494 222.594 63.0293 231C63.8431 236.345 61.9167 242.668 61.2855 248C60.6232 253.595 61 259.373 61 265C57.2265 261.111 55.6218 255.479 52.4128 251.039C50.4995 248.392 43.7484 238.375 39.5995 241.737C36.4121 244.32 38.1652 251.166 39.3951 254.285C43.0669 263.6 50.2153 273.277 61 274C61 281.698 60.59 289.405 62 297C57.1813 292.836 51.7623 285.067 45.0586 283.931C42.2158 283.45 41.2578 285.578 41.5733 288.043C42.1272 292.371 44.5292 297.243 46.9514 300.819C50.9708 306.755 58.1143 307.369 62.49 312.278C65.075 315.178 65.5373 319.389 66.4776 323C67.8751 328.366 69.7596 333.589 71 339C64.1523 334.336 57.496 329.505 50 325.899C47.8542 324.867 43.0824 321.805 41.0826 324.619C38.5889 328.127 44.2799 333.523 46.4676 335.664C55.152 344.165 64.1235 347.553 76 349C76.9061 354.083 79.4136 358.569 82 363C77.0035 363 71.9995 362.918 67.0039 363.005C64.8176 363.043 61.8687 362.901 60.3727 364.854C57.844 368.156 63.8221 373.655 66.0432 375.471C73.6372 381.683 83.1636 383.628 92 379C95.3705 386.973 103.078 397.303 111 401L112 400C109.907 392.949 104.35 388.065 100.438 382C98.9783 379.736 96.6647 376.839 96.7762 374C96.9277 370.146 100.72 366.234 102.345 362.83C106.408 354.316 108.497 344.579 104 336C94.6222 339.495 90.145 353.987 89 363C86.2195 358.121 84.1837 353.14 81.9637 348C81.0358 345.851 79.3666 343.426 79.4491 341C79.5772 337.234 83.616 333.206 85.409 330C88.3978 324.656 89.7376 319.095 90 313C82.1671 313.526 77.0406 319.087 74 326C72.4235 321.381 68.5475 311.939 70.3526 307.174C71.3932 304.426 74.6303 302.737 76.8264 301.025C80.7127 297.995 84.9163 294.457 87.1605 289.985C89.7949 284.736 87.6471 281.386 81.9992 283.979C76.522 286.494 72.2183 290.817 68 295C66.7748 289.854 63.9083 278.003 67.0278 273.318C69.0866 270.226 74.8423 270.499 77.9961 268.861C86.4501 264.472 90.598 256.221 91 247C81.9511 247.101 73.6119 250.97 67 257C67.0511 250.832 66.8547 238.267 70.7423 233.279C73.5655 229.656 79.1447 229.941 82.9992 228C90.6828 224.13 95.8855 215.379 97 207C88.6841 205.525 81.7673 208.182 75 213C77.1519 205.417 80.6336 197.689 82 190C90.8829 193.173 99.5669 191.988 105.957 184.409C107.843 182.172 111.677 177.676 109.867 174.514C106.637 168.871 93.5042 173.572 89 175C91.7429 168.936 94.0925 161.589 98.0463 156.213C100.064 153.469 103.341 152.274 105.606 149.787C109.52 145.491 112.787 133.524 108.062 128.623C104.382 124.806 97.6012 132.331 95.6381 135.015C92.5836 139.19 89.975 144.815 89.4792 150C89.2487 152.41 90.0699 154.951 89.3272 157.285C87.8026 162.078 84.4213 166.066 83 171M412 127C411.576 132.371 410.196 137.7 411.916 143C413.914 149.155 418.308 150.736 422.084 155.274C426.568 160.662 429.722 169.416 432 176C424.981 171.696 417.868 172.006 410 173C410.589 181.786 418.095 190.441 427 191.787C430.042 192.247 435.115 190.03 437.671 191.287C439.664 192.267 440.34 195.105 441.046 197.001C442.996 202.24 444.918 207.512 446 213C442.12 210.24 431.556 203.709 426.604 207.117C420.929 211.023 430.065 222.088 433.093 224.674C438.191 229.028 444.558 230.182 451 231C451.18 239.711 453.315 248.319 454 257C447.366 251.031 438.977 247.41 430 247C430.04 260.937 440.178 270.962 454 271C454 279.212 454.911 287.974 453 296C448.997 291.137 444.863 286.734 439 284.129C436.658 283.088 431.603 281.693 432.041 286.062C433.081 296.444 445.629 298.684 449.958 306.325C452.523 310.855 448.336 321.246 447 326C443.558 319.264 438.995 313.537 431 313C431.125 319.045 432.472 324.691 435.44 330C437.322 333.367 441.086 337.022 441.36 341C441.856 348.196 434.741 356.637 432 363C428.952 353.363 427.178 340.963 417 336C413.379 343.525 414.687 353.552 418.096 361C419.787 364.697 424.728 370.943 424.273 375C423.225 384.356 411.201 390.737 409 400C417.551 398.678 425.515 386.785 428 379C437.02 383.008 445.839 382.126 453.816 376.065C456.542 373.993 462.763 368.376 459.353 364.603C455.936 360.824 443.73 363 439 363C441.524 358.655 443.833 353.896 445 349C459.086 347.136 479.451 340.262 480 323C468.45 323.766 458.806 333.759 449 339C452.343 331.273 452.577 320.243 457.013 313.329C460.563 307.798 469.11 307.6 473.326 301.921C475.986 298.34 478.436 293.502 478.796 289.005C478.962 286.93 478.705 283.637 475.852 283.882C469.526 284.426 463.447 293.157 459 297C459.005 289.227 460.936 281.747 461 274C471.453 271.984 477.785 263.558 481.135 254C482.137 251.139 485.229 241.649 479.853 241.037C476.95 240.707 474.447 243.814 472.76 245.73C467.585 251.607 465.053 259.386 460 265C460 257.934 459.534 251.027 458.831 244C458.421 239.907 456.895 235.11 457.679 231.015C459.422 221.906 467.809 216.067 467.981 206C468.048 202.081 467.084 191.132 461.025 191.921C456.143 192.557 453.038 200.979 452 205C449.88 200.467 446.068 193.337 446.838 188.184C447.27 185.293 450.245 183.402 451.562 180.907C453.567 177.107 454.042 172.231 453.981 168C453.932 164.513 450.79 149.469 444.775 154.623C440.321 158.438 440.16 165.914 438 171C436.076 166.317 432.999 161.808 431.509 157C430.422 153.491 431.128 149.643 430.37 146.039C428.51 137.185 421.438 127.633 412 127z"/>
<path style="fill:none; stroke:none;" d="M103 140L100 146C102.544 144.45 103.596 142.997 103 140M420 146L421 147L420 146M72 168L72 174C72.9511 171.715 72.9511 170.285 72 168M99 182L97 183C98.4531 183.555 99.0757 183.604 99 182M421 182C422.223 183.195 422.42 183.316 424 184C422.861 182.984 422.388 182.691 421 182M64 210L64 213L66 213L66 210L64 210M454 210L454 216L456 216L456 210L454 210z"/>
<path style="fill:#00B3FF; stroke:none;" d="M117 265C117.669 262.111 122.709 252.17 119.397 250.176C116.317 248.322 113.748 254.043 112.877 256.001C110.851 260.554 109.739 265.452 107.688 270C105.556 274.728 102.291 278.98 101 284C110.286 282.957 109.796 274.791 115.637 269.603C118.049 267.46 122.057 267.665 125 266.612C132.338 263.985 138.832 257.389 136.682 249.015C134.617 240.971 123.476 240.581 117 242.015C114.588 242.549 111.245 243.184 109.752 245.4C108.418 247.379 109.907 249.212 112.063 249.292C116.613 249.46 120.249 244.9 124.995 245.619C135.163 247.159 128.843 257.897 123.998 261.35C121.855 262.877 119.363 263.873 117 265z"/>
<path style="fill:none; stroke:none;" d="M436.333 252.667C436.278 252.722 436.222 253.778 436.667 253.333C436.722 253.278 436.778 252.222 436.333 252.667z"/>
<path style="fill:#00B3FF; stroke:none;" d="M156 277C150.008 278.354 144.341 282.069 142 274C147.314 273.89 153.018 273.243 156.682 268.891C159.363 265.707 160.342 258.851 155.772 256.743C144.497 251.544 132.065 270.36 137.179 279.956C141.446 287.963 154.639 285.606 156 277M166 257C167.44 264.873 164.418 270.582 162.252 277.995C161.714 279.833 161.029 283.364 164.044 283.364C167.379 283.364 168.646 278.353 169.784 276C172.789 269.789 176.288 263.15 184 264C185.571 260.574 185.778 254.248 180 257.047C177.057 258.473 175.436 261.241 174 264C173.224 258.567 172.169 255.371 166 257M188 275C179.084 280.473 190.264 287.115 196.891 282.91C206.325 276.924 195.213 269.985 195.596 263.113C195.889 257.86 200.838 261.339 201 265C204.468 265.506 208.305 263.404 205.953 259.228C200.963 250.369 186.896 258.693 189.65 268C190.469 270.767 195.081 275.61 193.699 278.534C192.098 281.92 188.637 276.058 188 275M230 278L229 277C223.384 278.727 217.302 282.166 216 274C220.818 273.897 226.021 273.214 229.606 269.606C232.816 266.376 234.403 259.851 229.772 257.028C226.605 255.097 221.955 256.229 219.004 258.009C212.404 261.991 206.082 273.447 211.09 280.775C215.924 287.851 226.783 284.521 230 278M240 257C241.48 265.374 233.947 272.225 235.527 279.956C236.702 285.704 242.93 284.916 247 283.095C253.832 280.039 258.867 274.212 260.84 267C262.497 260.945 261.398 255.036 254 257C256.331 265.833 253.322 281.005 241 279C243.006 273.106 254.497 252.872 240 257M285 277C278.986 278.359 272.786 282.565 271 274C276.207 273.889 281.951 272.986 285.566 268.786C288.637 265.219 288.975 258.608 283.941 256.604C272.566 252.076 260.909 270.357 266.028 279.956C270.304 287.974 283.257 285.19 285 277M294 257C296.455 265.085 292.923 270.249 290.921 277.996C290.437 279.868 290.075 283.599 293.016 283.654C296.221 283.714 297.445 278.22 298.439 276C301.348 269.5 305.148 262.21 313 264C314.24 259.646 312.767 253.895 307.184 257.747C304.091 259.882 302.435 263.676 301 267C301.435 260.681 302.659 254.534 294 257M329 278C332.019 284.63 337.342 286.414 341 279C331.745 277.52 338.124 268.542 340.261 263.001C340.919 261.294 342.205 258.524 340.353 257.077C338.645 255.743 335.041 256.606 333 256.454C321.819 255.625 310.055 268.447 314.742 279.956C318.007 287.973 326.073 283.349 329 278M343 284C348.819 283.537 349.679 279.522 352.467 275C355.656 269.826 359.856 263.406 366 262C363.584 267.099 358.948 274.084 360.333 279.981C362.003 287.095 369.366 284.293 371 279L366 280C366.646 273.688 371.424 268.241 371.678 262.015C372.011 253.853 362.978 256.387 359.31 260.084C357.786 261.621 356.425 263.373 355 265C355.486 262.931 356.345 260.394 355.382 258.317C354.453 256.314 351.498 255.666 350.113 257.608C348.797 259.453 349.46 262.832 348.917 265C347.273 271.567 343.357 277.123 343 284M395 276C393.389 276.955 391.729 278.177 389.975 278.86C386.201 280.331 382.389 278.303 382.477 273.995C382.559 270.005 385.465 265.002 388.328 262.363C391.676 259.278 394.636 260.531 392.824 264.961L391 269C397.111 270.485 402.927 264.028 398.257 258.318C395.415 254.843 389.502 255.9 386.015 257.688C379.025 261.273 373.12 272.344 377.179 279.956C381.316 287.713 395.878 285.134 395 276M423 277C417.175 278.316 410.384 282.68 409 274C414.206 273.889 419.952 272.987 423.566 268.786C426.37 265.528 426.895 259.541 422.772 257.028C411.883 250.392 399.189 269.609 403.232 278.956C407.119 287.939 420.551 285.513 423 277z"/>
<path style="fill:none; stroke:none;" d="M217 271C223.392 269.76 227.794 265.743 226 259C220.831 261.432 218.013 265.408 217 271M328.981 260.006C324.13 261.406 321.049 268.47 320.333 272.999C320.01 275.047 319.868 279.551 323.133 279.079C327.939 278.383 331.855 269.174 332.59 265.005C333.038 262.463 332.323 259.042 328.981 260.006M410 271C416.587 269.806 420.88 265.927 419 259C413.831 261.432 411.013 265.408 410 271M143 271C149.471 270.279 153.279 266.471 154 260C147.331 260.507 145.033 265.136 143 271M272 271C275.592 270.349 278.976 269.138 281.087 265.9C281.935 264.6 282.936 262.28 281.343 261.086C276.687 257.6 272.808 268.203 272 271M172.333 264.667C172.278 264.722 172.222 265.778 172.667 265.333C172.722 265.278 172.778 264.222 172.333 264.667M82 370C83.7505 371.255 84.8573 371.614 87 372C85.2495 370.745 84.1426 370.386 82 370M434 371C436.044 371.774 436.845 371.592 439 371C436.956 370.226 436.155 370.408 434 371z"/>
<path style="fill:#00B3FF; stroke:none;" d="M120 410C122.889 417.822 134.532 425.843 142 429C137.964 438.118 138.972 447.029 145.594 454.815C147.777 457.381 151.893 461.6 155.722 460.292C161.71 458.247 158.837 443.506 158 439C161.929 441.244 168.297 442.713 171.062 446.415C173.375 449.512 173.395 454.414 174.71 458C177.544 465.726 182.368 472.574 189.004 477.481C194.219 481.338 199.806 480.376 196.586 473C193.106 465.031 187.609 456.598 182 450C186.737 451.096 191.25 452.933 196 453.986C200.072 454.889 205.271 455.315 208.698 457.924C211.458 460.025 212.111 464.029 213.8 466.91C215.766 470.263 218.738 472.961 222.001 475.035C224.459 476.597 238.956 483.831 237.839 475.941C236.92 469.455 228.961 464.55 225 460L247 461C249.418 471.289 258.83 479.777 269 481.985C271.759 482.585 277.906 484.359 279.917 481.397C281.828 478.585 278.354 475.039 276.481 473.294C270.621 467.832 263.794 463.847 256 462C263.897 459.327 272.744 459.672 281 458.91C284.168 458.618 287.66 456.891 290.83 457.603C298.422 459.306 303.858 466.619 312 467.79C318.933 468.787 328.759 467.569 331 460C326.237 457.216 321.347 454.39 317 451C321.633 449.937 328.313 445.924 332.996 446.907C335.898 447.516 337.762 450.171 340.285 451.526C345.608 454.385 353.123 454.781 359 453.737C364.509 452.758 372.046 448.006 364.941 443.144C360.834 440.334 355.8 440.04 351 440C355.314 436.711 360.692 432.784 366 431.347C368.917 430.558 372.031 431.185 375 430.671C381.72 429.509 392.057 423.955 394.199 417.019C396.355 410.038 382.75 411.573 379 412.39C371.963 413.924 370.685 419.242 365.726 423.182C360.514 427.323 352.86 428.879 347 432C347.948 426.403 352.741 416.706 348.076 411.622C345.062 408.336 338.93 414.22 336.666 416.205C329.351 422.618 327.972 430.369 332 439C324.127 440.646 316.853 444.2 309 446C311.494 442.231 320.03 430.292 314.397 426.042C311.587 423.922 306.556 426.32 304 427.789C295.25 432.821 291.082 441.188 291 451C282.627 451.661 274.399 453.93 266 454C268.64 448.67 272.728 443.836 274.039 437.91C274.448 436.067 275.171 433.288 273.933 431.607C271.605 428.447 265.498 431.353 263 432.789C254.626 437.604 250.197 445.518 250 455L226 454C231.43 447.185 237.494 441.682 240 433C230.725 431.292 225.093 438.861 219.615 445.116C218.077 446.872 216.52 449.607 214.296 450.548C209.676 452.502 200.883 448.631 196 448C199.486 444.424 204.538 442.331 207.257 437.961C208.33 436.236 209.255 433.582 207.382 432.029C205.213 430.23 201.979 431.547 199.715 432.333C193.519 434.484 188.975 438.299 183.17 441.012C176.679 444.046 163.017 435.844 159 431C166.769 430.839 173.472 428.262 179.826 423.806C182.968 421.603 186.907 416.743 180.811 415.279C173.284 413.47 162.781 416.691 156.001 419.912C152.988 421.344 149.482 425.482 145.91 424.633C136.718 422.448 129.896 408.111 120 410z"/>
<path style="fill:none; stroke:none;" d="M386.667 417.333C386.222 417.778 387.278 417.722 387.333 417.667C387.778 417.222 386.722 417.278 386.667 417.333M375 420C377.37 420.589 378.707 419.955 381 419C378.538 418.303 377.335 418.89 375 420M339 420C338.11 421.745 337.547 423.125 337 425C338.914 423.394 339.837 422.217 341 420L339 420M150 436L150 440C150.71 438.241 150.71 437.759 150 436M267 436L267 438L269 438L269 436L267 436M305 455C306.769 455.779 308.036 455.912 310 456C308.231 455.221 306.964 455.088 305 455M182 462L183 463L182 462z"/>
</svg>
