<?xml version="1.0" standalone="yes"?>
<svg xmlns="http://www.w3.org/2000/svg" width="454" height="454">
<path style="fill:none ; stroke:none;" d="M0 0L0 454L454 454L454 0L0 0z"/>
<path style="fill:#ffff4d; stroke:none;" d="M333 68C337.698 66.4341 342.238 64.4485 347 63.0363C351.002 61.8495 355.862 60.4023 359.999 61.6566C368.137 64.1241 369.867 72.799 364.772 78.9992C356.803 88.6964 344.727 94.1549 334 100.14C328.763 103.062 322.195 105.734 319 111L341 103C336.314 109.635 328.474 113.55 325 121C339.261 114.216 349.265 96.1906 366 94C363.926 96.9473 362.641 99.4488 362 103C367.483 99.1414 371.838 93.8291 378 90.912C390.494 84.9975 408.651 84.8271 412 68C407.053 67.1869 403.611 68.2248 399 70C400.601 67.6002 401.454 65.8243 402 63C395.652 63.6544 391.994 67.473 387 71C387.78 64.8268 389.516 57.5026 385.347 52.1088C381.474 47.0969 374.623 47.5652 369 48.6188C356.533 50.9548 340.827 57.7731 333 68M121 149C123.042 143.378 126.182 138.245 125.787 132C124.685 114.585 106.913 104.484 91 110.563C86.4217 112.312 82.7287 115.894 80.1435 120C78.5482 122.534 77.8506 126.11 74.8557 127.397C67.8483 130.407 60.5949 127.374 54.1883 133.34C43.243 143.533 49.5953 157.61 48.7014 170C48.2057 176.871 43.6497 182.016 41 188C47.1492 186.174 50.8984 181.59 56 178C55.3797 185.849 52.4541 192.626 50 200C74.9345 188.274 54.6349 151.636 77 139C81.5144 150.454 89.4961 156.895 102 157C99.263 166.717 94.3614 175.364 91.3804 185C85.7237 203.286 82.5387 231.624 92.5324 248.999C99.5218 261.151 112.412 257.034 122 250.771C138.963 239.69 154.357 218.587 160 199C149.861 207.86 143.096 219.983 132 228.073C128.497 230.627 121.491 235.375 117.757 230.681C114.67 226.801 118.071 220.626 120.029 217C126.194 205.584 133.994 194.955 142.285 185C175.276 145.393 217.115 108.087 263 84C259.024 82.5896 254.886 84.7044 251.015 85.9784C240.309 89.5016 229.806 94.0975 220 99.6536C187.499 118.069 160.212 145.905 121 149M160 438C159.269 433.766 157.263 430.107 156.09 426C152.858 414.693 150.304 402.809 150.015 391C149.376 364.919 154.214 338.775 162.041 314C177.792 264.139 203.803 218.382 238.285 179C252.68 162.559 268.316 147.383 285 133.275C292.428 126.993 304.8 121.109 310 113C304.408 114.77 299.249 118.122 294 120.753C276.373 129.589 259.694 140.882 244 152.769C188.408 194.874 141.802 252.137 117.601 318.09C115.425 324.02 113.119 329.987 111.194 336C102.111 364.383 89.4726 409.278 120 429.637C123.966 432.283 128.439 434.077 133 435.431C141.918 438.077 150.805 438 160 438z"/>
</svg>
