<?xml version="1.0" standalone="yes"?>
<svg xmlns="http://www.w3.org/2000/svg" width="500" height="145">
<path style="fill:none; stroke:none;" d="M0 0L0 145L500 145L500 0L0 0z"/>
<path style="fill:#0a0a0a; stroke:none;" d="M375 94C375.56 87.5822 378.796 82.8586 381 77L380 76C372.394 79.5766 368.808 88.1641 362 93C365.423 84.8212 371.325 73.0804 381 72C380.095 70.312 379.377 69.0909 377.851 67.838C366.77 58.7369 360.484 75.9465 355.64 82.9954C354.021 85.3519 351.493 89.1535 348.144 88.8241C341.434 88.164 347.481 76.1863 347.731 73.0625C347.951 70.3065 345.607 69.2643 343.294 70.5154C336.34 74.2774 332.498 91.6478 342.019 94.4823C347.637 96.155 351.796 91.9373 356 89C356.646 97.3625 362.761 96.0461 368 92C362.449 102.52 353.036 111.611 353 124C355.625 123.998 358.431 124.225 360.999 123.581C372.973 120.577 369.199 107.884 374.589 100.039C378.294 94.6466 385.203 91.3787 390 87C390 89.9375 388.56 101.933 393.965 101.079C397.341 100.545 398.948 93.5992 400.248 91C403.984 83.534 409.462 74.9433 417 71C417.249 72.8356 417.458 74.1988 416.944 76.0247C415.569 80.9025 406.496 98.2718 420 94.2531C421.479 93.8131 422.801 92.7497 423.975 91.7963C425.767 90.3416 427.364 88.6209 429 87C429.069 95.2519 433.812 106.58 443.999 100.258C451.047 95.8838 455.8 87.0074 457 79C451.75 85.4969 449.564 94.5242 440 96C438.833 86.7201 440.902 79.4712 444.769 71C445.984 68.3388 446.992 64.7678 449.418 62.9383C451.963 61.0196 455.981 60.7815 459 60C456.11 58.7871 453.126 59.0017 450 59C450 57.332 450.057 55.6468 449.981 53.9799C449.94 53.0906 450.002 51.998 449.682 51.1489C446.402 42.4445 439.001 57.5315 436.731 59.4105C435.124 60.7403 432.918 61.2862 431 62C432.543 63.2667 433.048 63.4892 435 64C432.2 76.2129 429.697 86.1228 417 91C417.562 85.3958 422.649 77.6827 420.382 72.1489C419.076 68.9611 415.647 69.1831 413 70.4614C408.001 72.8758 404.664 78.0221 401 82C403.236 72.585 411.141 54.0327 422 53C421.289 48.4445 418.174 39.6609 412.003 40.8318C408.568 41.4835 406.161 45.3378 404.36 48C393.69 63.7654 394.929 86.4465 375 94M71 67L72.9992 60.9954C74.8155 55.4737 73.5282 49.0754 66.1736 53.179C61.1936 55.9577 57.8269 62.8328 54 67C54.0896 62.6584 56.0742 57.672 52 55C48.5347 69.9789 42.2341 84.8152 40 100L45 102C49.3867 90.5597 55.1079 79.5082 63 70L55 94C70.0161 97.522 77.8392 75.4307 86 66C85.9707 76.5997 82.1304 86.6727 80 97C82.5219 97.6697 85.0855 98.2569 86.8218 95.6813C89.257 92.0688 89.1583 85.2345 89.8627 81C90.9818 74.2722 93.156 67.7923 94.1705 61C94.6353 57.8885 96.9297 54.1628 96.1867 51.0201C94.0513 41.9868 84.853 50.7684 82.0039 54.0895C78.2969 58.4106 75.4342 63.3904 71 67M164 47C163.211 49.7523 162.787 52.1349 164.171 54.8302C165.248 56.9268 167.448 58.4867 167.431 61.0386C167.396 66.2774 162.931 67.8175 159 66L155 68C155.42 72.1053 157.504 75.8506 157.316 80C157.06 85.6354 153.604 92.4043 154.492 97.8912C155.119 101.773 160.584 103.009 163.272 100.396C165.138 98.5823 165.583 95.355 166.435 93C168.458 87.4098 170.162 79.6321 174.394 75.2778C180.408 69.0884 190.376 71.1169 196 64L188 64.0039C185.622 64.0312 182.477 64.8328 180.188 64.1111C176.411 62.9201 178.699 58.748 181.134 57.5139C187.188 54.4467 208.598 57.7885 204 47C197.868 49.5982 191.547 48.9924 185 49C181.562 49.004 178.094 49.5284 175 48L173 48C171.212 49.4215 170.294 49.6974 168 50C169.478 49.0143 169.203 49 171 49C168.767 47.9906 166.396 47.5948 164 47M305 47C303.145 53.4722 308.25 55.4375 308.292 61.0386C308.328 65.908 303.752 68.6804 300 66L296 68C296.133 72.5016 298.332 76.5442 298.163 81C297.957 86.4158 294.583 92.5561 295.488 97.8912C296.072 101.327 300.666 102.915 303.487 100.968C305.826 99.3548 306.307 95.4854 307.228 93C309.287 87.4449 311 79.5473 315.275 75.2747C321.466 69.0863 331.333 71.1707 337 64L329 64.0039C326.553 64.0319 322.568 65.0964 320.362 63.8025C317.342 62.0313 319.924 58.5861 322.11 57.564C328.257 54.6898 349.299 57.6515 345 47C337.274 50.2736 322.939 50.7627 315 48C312.925 49.1702 311.363 49.6917 309 50C310.478 49.0143 310.203 49 312 49C309.767 47.9905 307.396 47.5948 305 47z"/>
<path style="fill:none; stroke:none;" d="M446 50C445.042 53.021 444.276 55.8387 444 59C447.307 56.8559 447.475 53.5245 446 50M79 60L78 62C79.2627 61.0287 79.3919 61.3063 79 60z"/>
<path style="fill:#0a0a0a; stroke:none;" d="M104 60C100.572 65.8957 96.7858 73.9892 97.1451 81C97.6027 89.9307 104.547 93.4104 112 90C109.555 95.676 106.71 103.317 100.985 106.291C97.6547 108.02 84.6358 109.602 84.6358 114.14C84.6358 123.342 100.261 121.689 104.985 118.347C110.159 114.686 111.51 108.708 115.471 104.133C117.73 101.523 120.974 100.544 123.536 98.3519C129.595 93.1692 135.923 84.3157 139 77C131.12 81.5275 126.151 90.2892 118 95C119.274 86.3763 126.663 76.5108 125 68L123 68C118.056 76.174 111.732 82.8461 103 87C105.617 78.7866 116.081 70.3455 107.936 62.3164C106.741 61.1389 105.477 60.6951 104 60M233 65C236.55 64.4239 237.764 63.3709 239 60C235.45 60.5761 234.236 61.6291 233 65M344 65C347.582 64.432 348.943 63.4918 350 60C346.451 60.5761 345.236 61.6291 344 65M236 69C227.121 71.7177 225.038 83.0221 216 87C215.372 82.4935 217.532 78.5703 213 76C210.756 79.5867 208.412 82.4873 205 85C208.176 80.3492 211.37 76.2707 216 73C211.042 56.5215 187.746 80.9601 201.059 87.8056C204.8 89.7293 208.999 87.0278 213 87.8094C217.983 88.7828 220.915 88.0223 225 85C225.782 99.2658 240.643 95.5049 246 86C246.685 88.2471 246.719 92.4519 248.742 93.9529C251.405 95.93 254.395 93.0305 255.786 90.9414C259.79 84.9291 263.255 75.984 265 69C265.846 73.9172 266.661 85.3777 274 78L270 79C270 77.3305 270.056 75.6444 269.981 73.9761C269.795 69.8498 267.446 65.9517 263.612 70.1674C259.984 74.1568 258.461 79.778 255 84C255.89 80.8873 257.245 78.027 258.381 75C259.342 72.4406 260.227 69.7339 259.127 67.0586C257.936 64.1658 254.451 62.0704 251.818 64.608C247.102 69.1524 247.703 78.462 243.803 83.9568C242.298 86.0777 239.394 89.6956 236.317 88.5779C234.164 87.796 234.039 84.8967 234.113 82.9992C234.31 77.9379 237.246 74.102 236 69z"/>
<path style="fill:none; stroke:none;" d="M443 63C441.459 66.581 440.521 70.1371 440 74C442.595 70.7874 443.915 66.9662 445 63L443 63M362 106C359.353 111.033 356.424 115.206 358 121C362.038 117.156 362.353 111.183 364 106L362 106M88 114C92.1523 121.53 99.353 116.116 103 111C97.8822 111.234 92.9458 112.717 88 114z"/>
</svg>
